<svg xmlns="http://www.w3.org/2000/svg" xmlns:xlink="http://www.w3.org/1999/xlink" width="500" zoomAndPan="magnify" viewBox="0 0 375 374.999991" height="500" preserveAspectRatio="xMidYMid meet" version="1.0"><defs><g/><clipPath id="id1"><path d="M 16 28 L 361.074219 28 L 361.074219 372.800781 L 16 372.800781 Z M 16 28 " clip-rule="nonzero"/></clipPath><clipPath id="id2"><path d="M 75 2.300781 L 143 2.300781 L 143 73 L 75 73 Z M 75 2.300781 " clip-rule="nonzero"/></clipPath></defs><path fill="#151818" d="M 189.039062 28.449219 C 93.980469 28.449219 16.914062 105.511719 16.914062 200.574219 C 16.914062 295.636719 93.980469 372.699219 189.039062 372.699219 C 284.101562 372.699219 361.164062 295.636719 361.164062 200.574219 C 361.164062 105.511719 284.101562 28.449219 189.039062 28.449219 " fill-opacity="1" fill-rule="nonzero"/><g clip-path="url(#id1)"><path fill="#ffffff" d="M 188.890625 372.648438 C 165.648438 372.648438 143.097656 368.09375 121.871094 359.109375 C 101.367188 350.433594 82.949219 338.011719 67.140625 322.191406 C 51.332031 306.367188 38.914062 287.945312 30.238281 267.433594 C 21.261719 246.191406 16.710938 223.628906 16.710938 200.375 C 16.710938 177.121094 21.261719 154.558594 30.238281 133.320312 C 38.914062 112.804688 51.328125 94.378906 67.140625 78.5625 C 82.953125 62.746094 101.367188 50.320312 121.871094 41.644531 C 143.097656 32.660156 165.648438 28.105469 188.890625 28.105469 C 212.132812 28.105469 234.683594 32.660156 255.914062 41.644531 C 276.417969 50.320312 294.832031 62.742188 310.644531 78.5625 C 326.453125 94.386719 338.871094 112.804688 347.542969 133.320312 C 356.523438 154.558594 361.074219 177.121094 361.074219 200.375 C 361.074219 229.707031 353.578125 258.667969 339.390625 284.132812 C 339.042969 284.753906 338.261719 284.976562 337.636719 284.628906 C 337.015625 284.28125 336.792969 283.5 337.140625 282.878906 C 351.113281 257.796875 358.496094 229.265625 358.496094 200.375 C 358.496094 106.808594 282.410156 30.683594 188.890625 30.683594 C 95.371094 30.683594 19.285156 106.808594 19.285156 200.375 C 19.285156 293.945312 95.371094 370.070312 188.890625 370.070312 C 209.804688 370.070312 230.214844 366.308594 249.5625 358.890625 C 250.230469 358.636719 250.972656 358.96875 251.230469 359.632812 C 251.484375 360.300781 251.152344 361.042969 250.488281 361.300781 C 230.839844 368.828125 210.117188 372.648438 188.890625 372.648438 Z M 188.890625 372.648438 " fill-opacity="1" fill-rule="nonzero"/></g><g clip-path="url(#id2)"><path fill="#ffffff" d="M 76.652344 72.738281 C 76.507812 72.738281 76.371094 72.714844 76.230469 72.667969 C 75.621094 72.457031 75.261719 71.828125 75.390625 71.195312 C 77.359375 61.511719 79.179688 55.851562 84.222656 49.859375 C 87.238281 46.273438 91.003906 43.308594 94.300781 40.8125 C 102.632812 34.488281 111.441406 28.585938 120.46875 23.273438 L 121.761719 22.511719 C 125.726562 20.191406 129.824219 17.796875 133.105469 14.621094 C 136.300781 11.523438 138.75 7.664062 140.179688 3.464844 C 140.394531 2.832031 141.058594 2.46875 141.707031 2.625 C 142.355469 2.785156 142.777344 3.417969 142.671875 4.078125 C 141.476562 11.699219 138.445312 19.027344 133.898438 25.273438 C 127.078125 34.640625 117.097656 41.285156 107.335938 47.074219 C 106.523438 47.554688 105.710938 48.03125 104.894531 48.507812 C 96.367188 53.515625 87.554688 58.695312 81.734375 66.542969 C 81.375 67.027344 80.976562 67.53125 80.566406 68.050781 C 79.523438 69.375 78.441406 70.742188 77.804688 72.019531 C 77.582031 72.472656 77.128906 72.738281 76.652344 72.738281 Z M 86.191406 51.519531 C 82.640625 55.738281 80.828125 59.707031 79.332031 65.453125 C 79.445312 65.300781 79.558594 65.15625 79.664062 65.007812 C 85.796875 56.734375 94.84375 51.425781 103.59375 46.285156 C 104.40625 45.808594 105.21875 45.332031 106.023438 44.855469 C 115.554688 39.207031 125.273438 32.746094 131.820312 23.757812 C 134.046875 20.695312 135.894531 17.363281 137.308594 13.851562 C 136.558594 14.769531 135.753906 15.648438 134.902344 16.472656 C 131.394531 19.867188 127.160156 22.339844 123.0625 24.738281 L 121.773438 25.492188 C 112.832031 30.757812 104.109375 36.601562 95.851562 42.867188 C 92.53125 45.390625 89.042969 48.132812 86.191406 51.519531 Z M 86.191406 51.519531 " fill-opacity="1" fill-rule="nonzero"/></g><path fill="#ffffff" d="M 66.261719 82.777344 C 65.882812 82.777344 65.511719 82.613281 65.261719 82.300781 C 64.851562 81.796875 64.878906 81.070312 65.324219 80.601562 C 72.109375 73.421875 76.648438 69.574219 84.082031 67.15625 C 88.539062 65.710938 93.304688 65.179688 97.417969 64.796875 C 107.832031 63.832031 118.425781 63.472656 128.898438 63.734375 L 130.398438 63.773438 C 134.988281 63.894531 139.734375 64.023438 144.203125 63.0625 C 148.550781 62.121094 152.664062 60.136719 156.09375 57.328125 C 156.613281 56.902344 157.367188 56.945312 157.835938 57.425781 C 158.300781 57.902344 158.324219 58.664062 157.886719 59.167969 C 152.84375 65.007812 146.398438 69.628906 139.246094 72.53125 C 128.511719 76.882812 116.527344 77.253906 105.183594 77.007812 C 104.242188 76.984375 103.296875 76.964844 102.355469 76.9375 C 92.46875 76.683594 82.25 76.421875 73.164062 80.015625 C 72.601562 80.234375 71.996094 80.453125 71.375 80.679688 C 69.789062 81.253906 68.148438 81.84375 66.933594 82.59375 C 66.722656 82.71875 66.492188 82.777344 66.261719 82.777344 Z M 84.882812 69.609375 C 79.640625 71.316406 76.007812 73.730469 71.699219 77.816406 C 71.875 77.75 72.050781 77.683594 72.21875 77.617188 C 81.789062 73.832031 92.28125 74.097656 102.421875 74.359375 C 103.363281 74.386719 104.304688 74.410156 105.242188 74.429688 C 116.316406 74.671875 127.984375 74.316406 138.285156 70.140625 C 141.792969 68.71875 145.121094 66.859375 148.179688 64.628906 C 147.058594 65.011719 145.910156 65.335938 144.75 65.585938 C 139.980469 66.609375 135.078125 66.476562 130.332031 66.347656 L 128.84375 66.308594 C 118.46875 66.050781 107.980469 66.410156 97.660156 67.367188 C 93.5 67.75 89.085938 68.238281 84.882812 69.609375 Z M 84.882812 69.609375 " fill-opacity="1" fill-rule="nonzero"/><path fill="#ffffff" d="M 18.394531 192.125 C 17.996094 192.125 17.621094 191.941406 17.371094 191.621094 C 14.058594 187.3125 11.667969 183.640625 9.84375 180.074219 C 4.527344 169.683594 2.886719 157.796875 1.980469 147.535156 C 1.753906 144.980469 1.5625 142.371094 1.375 139.855469 C 0.757812 131.550781 0.121094 122.957031 -1.796875 114.777344 C -1.933594 114.203125 -1.65625 113.605469 -1.128906 113.335938 C -0.597656 113.0625 0.046875 113.1875 0.429688 113.640625 C 9.0625 123.601562 14.691406 133.277344 17.644531 143.222656 C 21.019531 154.589844 20.785156 166.539062 20.199219 175.683594 C 19.898438 180.382812 19.757812 184.78125 19.761719 189.132812 C 19.761719 189.753906 19.738281 190.347656 19.679688 190.957031 C 19.632812 191.484375 19.265625 191.925781 18.757812 192.078125 C 18.632812 192.105469 18.511719 192.125 18.394531 192.125 Z M 12.136719 178.894531 C 13.453125 181.472656 15.09375 184.121094 17.191406 187.054688 C 17.226562 183.320312 17.371094 179.527344 17.625 175.519531 C 18.195312 166.59375 18.429688 154.9375 15.171875 143.957031 C 12.710938 135.675781 8.300781 127.558594 1.742188 119.261719 C 2.929688 126.042969 3.441406 132.945312 3.945312 139.664062 C 4.128906 142.171875 4.320312 144.769531 4.550781 147.3125 C 5.429688 157.320312 7.023438 168.902344 12.136719 178.894531 Z M 12.136719 178.894531 " fill-opacity="1" fill-rule="nonzero"/><path fill="#ffffff" d="M 20.132812 182.835938 C 20.011719 182.835938 19.890625 182.820312 19.769531 182.785156 C 19.1875 182.613281 18.800781 182.054688 18.847656 181.449219 C 18.988281 179.59375 19.285156 177.597656 19.75 175.355469 C 20.777344 170.433594 22 166.496094 23.605469 162.972656 C 27.785156 153.78125 35.066406 146.492188 42.109375 139.445312 C 49.410156 132.136719 56.964844 124.578125 60.722656 115.0625 C 60.929688 114.535156 61.457031 114.207031 62.023438 114.25 C 62.589844 114.296875 63.058594 114.707031 63.175781 115.261719 C 65.425781 125.660156 61.769531 137.851562 53.144531 148.710938 C 48.320312 154.78125 42.503906 160.035156 36.875 165.125 C 33.953125 167.761719 30.933594 170.484375 28.109375 173.28125 C 25.078125 176.277344 22.765625 178.914062 21.320312 182.046875 C 21.304688 182.082031 21.28125 182.125 21.265625 182.160156 C 21.039062 182.582031 20.59375 182.835938 20.132812 182.835938 Z M 61.21875 120.132812 C 56.972656 128.210938 50.355469 134.832031 43.929688 141.265625 C 37.050781 148.152344 29.933594 155.273438 25.949219 164.035156 C 24.4375 167.363281 23.273438 171.089844 22.296875 175.773438 C 23.546875 174.234375 24.921875 172.804688 26.296875 171.445312 C 29.164062 168.613281 32.207031 165.867188 35.148438 163.207031 C 40.695312 158.195312 46.4375 153.007812 51.125 147.105469 C 58.082031 138.351562 61.632812 128.75 61.21875 120.132812 Z M 61.21875 120.132812 " fill-opacity="1" fill-rule="nonzero"/><path fill="#ffffff" d="M 22.988281 155.527344 C 22.925781 155.527344 22.871094 155.523438 22.8125 155.511719 C 22.21875 155.429688 21.761719 154.953125 21.703125 154.363281 C 19.007812 126.375 23.304688 97.886719 34.132812 71.980469 C 34.378906 71.398438 35.011719 71.078125 35.625 71.226562 C 36.238281 71.371094 36.65625 71.945312 36.605469 72.578125 C 36.140625 78.644531 36.269531 84.871094 36.386719 90.890625 C 36.511719 97.121094 36.644531 103.566406 36.125 109.910156 C 34.925781 124.546875 30.484375 138.40625 24.1875 154.707031 C 23.996094 155.203125 23.515625 155.527344 22.988281 155.527344 Z M 33.714844 80.128906 C 25.773438 101.894531 22.386719 125.25 23.820312 148.410156 C 28.953125 134.589844 32.519531 122.414062 33.558594 109.695312 C 34.070312 103.484375 33.9375 97.109375 33.8125 90.945312 C 33.738281 87.390625 33.664062 83.765625 33.714844 80.128906 Z M 33.714844 80.128906 " fill-opacity="1" fill-rule="nonzero"/><path fill="#ffffff" d="M 35.078125 124.105469 C 34.789062 124.105469 34.503906 124.011719 34.265625 123.816406 C 33.785156 123.429688 33.652344 122.753906 33.941406 122.210938 C 35.601562 119.089844 38.109375 115.972656 41.828125 112.402344 C 57.679688 97.179688 77.34375 86.40625 98.695312 81.246094 C 99.253906 81.113281 99.832031 81.363281 100.117188 81.863281 C 100.402344 82.359375 100.324219 82.988281 99.921875 83.398438 C 91.636719 91.957031 83.070312 100.804688 72.265625 106.617188 C 67.816406 109.011719 62.679688 110.957031 57.714844 112.835938 C 49.890625 115.796875 41.800781 118.859375 35.90625 123.808594 C 35.667969 124.007812 35.375 124.105469 35.078125 124.105469 Z M 43.613281 114.257812 C 42.390625 115.433594 41.308594 116.550781 40.351562 117.636719 C 45.433594 114.726562 51.183594 112.546875 56.800781 110.421875 C 61.914062 108.484375 66.742188 106.660156 71.046875 104.34375 C 80.128906 99.453125 87.683594 92.246094 94.855469 84.917969 C 75.664062 90.328125 58.027344 100.417969 43.613281 114.257812 Z M 43.613281 114.257812 " fill-opacity="1" fill-rule="nonzero"/><path fill="#ffffff" d="M 42.605469 111.726562 C 42.515625 111.726562 42.425781 111.71875 42.335938 111.699219 C 41.882812 111.601562 41.519531 111.273438 41.378906 110.835938 C 40.582031 108.378906 40.257812 105.59375 40.4375 102.789062 C 40.75 97.964844 42.386719 93.421875 44.105469 89.234375 C 46.066406 84.441406 48.3125 79.695312 50.484375 75.109375 C 52.898438 70.011719 55.390625 64.746094 57.484375 59.433594 C 61.359375 49.59375 62.816406 28.132812 62.828125 27.917969 C 62.871094 27.269531 63.386719 26.753906 64.035156 26.714844 C 64.679688 26.675781 65.261719 27.121094 65.378906 27.761719 C 65.609375 28.964844 70.878906 57.390625 67.332031 71.378906 C 63.027344 88.367188 49.273438 104.957031 43.558594 111.296875 C 43.3125 111.578125 42.964844 111.726562 42.605469 111.726562 Z M 43.007812 102.957031 C 42.902344 104.59375 42.992188 106.214844 43.261719 107.746094 C 49.488281 100.566406 61.035156 85.753906 64.839844 70.75 C 66.960938 62.386719 65.695312 48.089844 64.417969 38.40625 C 63.578125 45.511719 62.132812 54.664062 59.882812 60.378906 C 57.757812 65.769531 55.246094 71.078125 52.816406 76.210938 C 50.65625 80.769531 48.429688 85.484375 46.492188 90.214844 C 44.855469 94.199219 43.300781 98.503906 43.007812 102.957031 Z M 43.007812 102.957031 " fill-opacity="1" fill-rule="nonzero"/><path fill="#ffffff" d="M 267.46875 353.742188 C 267.46875 354.257812 267.371094 354.75 267.175781 355.222656 C 266.980469 355.699219 266.699219 356.117188 266.335938 356.476562 C 265.976562 356.839844 265.558594 357.121094 265.082031 357.316406 C 264.609375 357.511719 264.117188 357.609375 263.605469 357.609375 C 263.09375 357.609375 262.597656 357.511719 262.125 357.316406 C 261.652344 357.121094 261.234375 356.839844 260.871094 356.476562 C 260.507812 356.117188 260.230469 355.699219 260.035156 355.222656 C 259.839844 354.75 259.738281 354.257812 259.738281 353.742188 C 259.738281 353.230469 259.839844 352.738281 260.035156 352.265625 C 260.230469 351.789062 260.507812 351.371094 260.871094 351.011719 C 261.234375 350.648438 261.652344 350.367188 262.125 350.171875 C 262.597656 349.976562 263.09375 349.878906 263.605469 349.878906 C 264.117188 349.878906 264.609375 349.976562 265.082031 350.171875 C 265.558594 350.367188 265.976562 350.648438 266.335938 351.011719 C 266.699219 351.371094 266.980469 351.789062 267.175781 352.265625 C 267.371094 352.738281 267.46875 353.230469 267.46875 353.742188 Z M 267.46875 353.742188 " fill-opacity="1" fill-rule="nonzero"/><path fill="#ffffff" d="M 292.953125 338.433594 C 292.953125 338.945312 292.855469 339.4375 292.660156 339.914062 C 292.460938 340.386719 292.183594 340.804688 291.820312 341.167969 C 291.457031 341.53125 291.039062 341.808594 290.566406 342.003906 C 290.09375 342.203125 289.601562 342.300781 289.089844 342.300781 C 288.574219 342.300781 288.082031 342.203125 287.609375 342.003906 C 287.136719 341.808594 286.71875 341.53125 286.355469 341.167969 C 285.992188 340.804688 285.714844 340.386719 285.519531 339.914062 C 285.320312 339.4375 285.222656 338.945312 285.222656 338.433594 C 285.222656 337.921875 285.320312 337.425781 285.519531 336.953125 C 285.714844 336.480469 285.992188 336.0625 286.355469 335.699219 C 286.71875 335.335938 287.136719 335.058594 287.609375 334.859375 C 288.082031 334.664062 288.574219 334.566406 289.089844 334.566406 C 289.601562 334.566406 290.09375 334.664062 290.566406 334.859375 C 291.039062 335.058594 291.457031 335.335938 291.820312 335.699219 C 292.183594 336.0625 292.460938 336.480469 292.660156 336.953125 C 292.855469 337.425781 292.953125 337.921875 292.953125 338.433594 Z M 292.953125 338.433594 " fill-opacity="1" fill-rule="nonzero"/><path fill="#ffffff" d="M 315.390625 318.929688 C 315.390625 319.441406 315.292969 319.933594 315.097656 320.410156 C 314.902344 320.882812 314.621094 321.300781 314.261719 321.664062 C 313.898438 322.027344 313.480469 322.304688 313.007812 322.5 C 312.535156 322.699219 312.039062 322.796875 311.527344 322.796875 C 311.015625 322.796875 310.523438 322.699219 310.050781 322.5 C 309.574219 322.304688 309.15625 322.027344 308.796875 321.664062 C 308.433594 321.300781 308.152344 320.882812 307.957031 320.410156 C 307.761719 319.933594 307.664062 319.441406 307.664062 318.929688 C 307.664062 318.417969 307.761719 317.921875 307.957031 317.449219 C 308.152344 316.976562 308.433594 316.558594 308.796875 316.195312 C 309.15625 315.832031 309.574219 315.554688 310.050781 315.355469 C 310.523438 315.160156 311.015625 315.0625 311.527344 315.0625 C 312.039062 315.0625 312.53125 315.160156 313.007812 315.355469 C 313.480469 315.554688 313.898438 315.832031 314.261719 316.195312 C 314.621094 316.558594 314.902344 316.976562 315.097656 317.449219 C 315.292969 317.921875 315.390625 318.417969 315.390625 318.929688 Z M 315.390625 318.929688 " fill-opacity="1" fill-rule="nonzero"/><path fill="#ffffff" d="M 334.105469 295.820312 C 334.105469 296.332031 334.007812 296.828125 333.8125 297.300781 C 333.613281 297.773438 333.335938 298.191406 332.972656 298.554688 C 332.609375 298.917969 332.191406 299.195312 331.71875 299.394531 C 331.246094 299.589844 330.753906 299.6875 330.242188 299.6875 C 329.726562 299.6875 329.234375 299.589844 328.761719 299.394531 C 328.289062 299.195312 327.871094 298.917969 327.507812 298.554688 C 327.144531 298.191406 326.867188 297.773438 326.671875 297.300781 C 326.472656 296.828125 326.375 296.332031 326.375 295.820312 C 326.375 295.308594 326.472656 294.816406 326.671875 294.339844 C 326.867188 293.867188 327.144531 293.449219 327.507812 293.085938 C 327.871094 292.722656 328.289062 292.445312 328.761719 292.25 C 329.234375 292.050781 329.726562 291.953125 330.242188 291.953125 C 330.753906 291.953125 331.246094 292.050781 331.71875 292.25 C 332.191406 292.445312 332.609375 292.722656 332.972656 293.085938 C 333.335938 293.449219 333.613281 293.867188 333.8125 294.339844 C 334.007812 294.816406 334.105469 295.308594 334.105469 295.820312 Z M 334.105469 295.820312 " fill-opacity="1" fill-rule="nonzero"/><g fill="#ffffff" fill-opacity="1"><g transform="translate(53.216128, 267.892692)"><g><path d="M 19.921875 8.40625 C 17.140625 10.539062 14.472656 11.425781 11.921875 11.0625 C 9.378906 10.707031 7.023438 9.117188 4.859375 6.296875 L 1.796875 2.34375 L 18.34375 -10.40625 L 21.796875 -5.921875 C 23.828125 -3.285156 24.679688 -0.75 24.359375 1.6875 C 24.046875 4.132812 22.566406 6.375 19.921875 8.40625 Z M 18.90625 7.1875 C 21.28125 5.363281 22.597656 3.390625 22.859375 1.265625 C 23.128906 -0.859375 22.367188 -3.085938 20.578125 -5.421875 L 18.234375 -8.46875 L 3.71875 2.71875 L 5.828125 5.453125 C 9.628906 10.398438 13.988281 10.976562 18.90625 7.1875 Z M 18.90625 7.1875 "/></g></g></g><g fill="#ffffff" fill-opacity="1"><g transform="translate(71.732951, 290.475445)"><g><path d="M 10.515625 9.796875 L 2.15625 2.015625 L 16.390625 -13.265625 L 24.75 -5.484375 L 23.84375 -4.5 L 16.5625 -11.28125 L 11.171875 -5.5 L 18.046875 0.90625 L 17.125 1.890625 L 10.25 -4.515625 L 4.15625 2.03125 L 11.4375 8.8125 Z M 10.515625 9.796875 "/></g></g></g><g fill="#ffffff" fill-opacity="1"><g transform="translate(90.115759, 306.770269)"><g><path d="M 24.40625 -8.65625 L 25.71875 -7.75 L 7.5 5.109375 L 6.4375 4.375 L 11.765625 -17.265625 L 13.0625 -16.390625 L 9.375 -1.6875 C 8.832031 0.539062 8.375 2.175781 8 3.21875 C 8.5625 2.726562 9.5 2.023438 10.8125 1.109375 Z M 24.40625 -8.65625 "/></g></g></g><g fill="#ffffff" fill-opacity="1"><g transform="translate(125.235101, 327.078427)"><g><path d="M 4.140625 1.546875 L 2.765625 1.03125 L 10.0625 -18.546875 L 20.796875 -14.546875 L 20.328125 -13.28125 L 10.96875 -16.765625 L 7.875 -8.46875 L 16.703125 -5.171875 L 16.234375 -3.890625 L 7.40625 -7.1875 Z M 4.140625 1.546875 "/></g></g></g><g fill="#ffffff" fill-opacity="1"><g transform="translate(147.034648, 334.649442)"><g><path d="M 6.203125 -8 L 4.328125 0.90625 L 2.890625 0.609375 L 7.203125 -19.828125 L 12.078125 -18.796875 C 14.609375 -18.265625 16.378906 -17.398438 17.390625 -16.203125 C 18.410156 -15.015625 18.722656 -13.484375 18.328125 -11.609375 C 18.035156 -10.234375 17.425781 -9.148438 16.5 -8.359375 C 15.582031 -7.566406 14.347656 -7.125 12.796875 -7.03125 L 16.375 3.453125 L 14.65625 3.09375 L 11.28125 -6.921875 Z M 6.46875 -9.234375 L 10.359375 -8.40625 C 12.085938 -8.039062 13.507812 -8.140625 14.625 -8.703125 C 15.738281 -9.265625 16.453125 -10.296875 16.765625 -11.796875 C 17.097656 -13.359375 16.875 -14.59375 16.09375 -15.5 C 15.3125 -16.40625 13.863281 -17.082031 11.75 -17.53125 L 8.375 -18.25 Z M 6.46875 -9.234375 "/></g></g></g><g fill="#ffffff" fill-opacity="1"><g transform="translate(172.645773, 339.501481)"><g><path d="M 20.859375 -9.765625 C 20.742188 -6.453125 19.820312 -3.859375 18.09375 -1.984375 C 16.375 -0.117188 14.0625 0.757812 11.15625 0.65625 C 8.25 0.5625 6 -0.472656 4.40625 -2.453125 C 2.820312 -4.441406 2.085938 -7.101562 2.203125 -10.4375 C 2.316406 -13.75 3.238281 -16.332031 4.96875 -18.1875 C 6.707031 -20.039062 9.023438 -20.921875 11.921875 -20.828125 C 14.828125 -20.722656 17.070312 -19.679688 18.65625 -17.703125 C 20.238281 -15.734375 20.972656 -13.085938 20.859375 -9.765625 Z M 3.78125 -10.359375 C 3.675781 -7.367188 4.265625 -5.035156 5.546875 -3.359375 C 6.828125 -1.679688 8.710938 -0.800781 11.203125 -0.71875 C 13.710938 -0.632812 15.660156 -1.375 17.046875 -2.9375 C 18.429688 -4.507812 19.175781 -6.804688 19.28125 -9.828125 C 19.382812 -12.828125 18.796875 -15.15625 17.515625 -16.8125 C 16.242188 -18.46875 14.363281 -19.335938 11.875 -19.421875 C 9.382812 -19.503906 7.4375 -18.757812 6.03125 -17.1875 C 4.625 -15.613281 3.875 -13.335938 3.78125 -10.359375 Z M 3.78125 -10.359375 "/></g></g></g><g fill="#ffffff" fill-opacity="1"><g transform="translate(203.803529, 339.680214)"><g><path d="M 17.9375 -2.75 L 16.484375 -2.53125 L 1.4375 -18.984375 L 1.328125 -18.96875 C 1.773438 -16.800781 2.085938 -15.160156 2.265625 -14.046875 L 4.3125 -0.65625 L 2.921875 -0.453125 L -0.25 -21.109375 L 1.203125 -21.328125 L 16.234375 -4.890625 L 16.3125 -4.90625 C 15.96875 -6.570312 15.675781 -8.175781 15.4375 -9.71875 L 13.375 -23.1875 L 14.765625 -23.40625 Z M 17.9375 -2.75 "/></g></g></g><g fill="#ffffff" fill-opacity="1"><g transform="translate(232.936914, 334.269761)"><g><path d="M 7.984375 -2.609375 L 6.59375 -2.15625 L 0.546875 -20.703125 L -5.90625 -18.59375 L -6.34375 -19.90625 L 7.953125 -24.578125 L 8.390625 -23.265625 L 1.9375 -21.15625 Z M 7.984375 -2.609375 "/></g></g></g><g fill="#ffffff" fill-opacity="1"><g transform="translate(254.998467, 326.345035)"><g><path d="M -1.9375 -7.171875 L -2.421875 -8.234375 L 3.71875 -11.125 L 4.203125 -10.0625 Z M -1.9375 -7.171875 "/></g></g></g><g fill="#ffffff" fill-opacity="1"><g transform="translate(270.762126, 318.577027)"><g><path d="M 12.109375 -7.734375 L 2.484375 -1.59375 L -8.75 -19.203125 L 0.875 -25.34375 L 1.59375 -24.21875 L -6.78125 -18.859375 L -2.53125 -12.1875 L 5.375 -17.25 L 6.09375 -16.109375 L -1.8125 -11.046875 L 3.015625 -3.5 L 11.390625 -8.859375 Z M 12.109375 -7.734375 "/></g></g></g><g fill="#ffffff" fill-opacity="1"><g transform="translate(291.330535, 304.845714)"><g><path d="M 13.46875 -12.15625 L 12.375 -11.171875 L -9.234375 -16.640625 L -9.3125 -16.578125 C -7.75 -15.015625 -6.59375 -13.816406 -5.84375 -12.984375 L 3.234375 -2.921875 L 2.1875 -1.984375 L -11.8125 -17.5 L -10.71875 -18.484375 L 10.859375 -13 L 10.921875 -13.0625 C 9.710938 -14.269531 8.59375 -15.445312 7.5625 -16.59375 L -1.578125 -26.71875 L -0.53125 -27.671875 Z M 13.46875 -12.15625 "/></g></g></g><g fill="#ffffff" fill-opacity="1"><g transform="translate(312.938069, 284.264956)"><g><path d="M 3.046875 -21.40625 C 5.828125 -19.269531 7.363281 -16.921875 7.65625 -14.359375 C 7.957031 -11.804688 7.023438 -9.117188 4.859375 -6.296875 L 1.796875 -2.34375 L -14.75 -15.09375 L -11.296875 -19.578125 C -9.265625 -22.210938 -7.023438 -23.679688 -4.578125 -23.984375 C -2.140625 -24.296875 0.398438 -23.4375 3.046875 -21.40625 Z M 2.125 -20.125 C -0.25 -21.945312 -2.492188 -22.71875 -4.609375 -22.4375 C -6.734375 -22.15625 -8.691406 -20.847656 -10.484375 -18.515625 L -12.828125 -15.46875 L 1.6875 -4.28125 L 3.796875 -7.015625 C 7.597656 -11.960938 7.039062 -16.332031 2.125 -20.125 Z M 2.125 -20.125 "/></g></g></g><g fill="#ffffff" fill-opacity="1"><g transform="translate(94.638955, 271.154957)"><g><path d="M 112.921875 -161.1875 C 114.328125 -161.1875 115.457031 -160.675781 116.3125 -159.65625 C 117.175781 -158.644531 117.609375 -157.4375 117.609375 -156.03125 C 115.109375 -129.945312 113.625 -105.738281 113.15625 -83.40625 C 113 -81.0625 112.921875 -77.546875 112.921875 -72.859375 L 112.6875 -62.3125 L 111.515625 -62.3125 C 110.578125 -62.3125 110.03125 -62.234375 109.875 -62.078125 C 109.71875 -61.921875 108.703125 -61.84375 106.828125 -61.84375 L 107.296875 -61.375 L 106.828125 -60.90625 L 107.296875 -60.90625 L 108.234375 -61.140625 C 108.546875 -60.984375 109.328125 -60.90625 110.578125 -60.90625 L 112.21875 -60.90625 C 112.53125 -60.90625 112.6875 -60.828125 112.6875 -60.671875 L 112.6875 -60.203125 L 111.515625 -60.203125 L 111.984375 -59.96875 L 111.515625 -59.5 L 112.6875 -59.5 C 112.53125 -47.632812 112.453125 -29.910156 112.453125 -6.328125 C 112.453125 -3.046875 110.890625 -1.40625 107.765625 -1.40625 L 76.84375 -0.703125 C 74.65625 -0.703125 73.09375 -1.71875 72.15625 -3.75 L 68.640625 -13.59375 L 68.875 -13.59375 L 68.875 -13.828125 L 68.40625 -13.828125 L 49.90625 -63.015625 C 51.15625 -63.640625 52.09375 -64.1875 52.71875 -64.65625 L 51.546875 -64.421875 L 51.078125 -64.65625 L 49.90625 -64.421875 L 49.4375 -64.1875 L 40.53125 -87.625 L 38.890625 -4.6875 C 38.578125 -1.5625 36.9375 0 33.96875 0 L 2.34375 0 C 0.9375 0 -0.191406 -0.46875 -1.046875 -1.40625 C -1.910156 -2.34375 -2.34375 -3.515625 -2.34375 -4.921875 C -2.03125 -13.046875 -1.40625 -24.601562 -0.46875 -39.59375 L -0.234375 -45.21875 C 1.484375 -74.582031 2.8125 -95.429688 3.75 -107.765625 L 7.96875 -156.734375 C 8.125 -159.546875 9.6875 -161.03125 12.65625 -161.1875 L 35.140625 -161.890625 C 40.140625 -162.203125 44.4375 -160.953125 48.03125 -158.140625 C 51.625 -155.328125 54.515625 -151.421875 56.703125 -146.421875 L 56.9375 -146.1875 L 76.375 -95.359375 L 80.125 -157.4375 C 80.125 -160.40625 81.765625 -161.890625 85.046875 -161.890625 Z M 27.171875 -128.390625 C 26.859375 -128.390625 26.546875 -128.15625 26.234375 -127.6875 L 27.640625 -126.984375 C 27.640625 -127.609375 27.484375 -128.078125 27.171875 -128.390625 Z M 24.359375 -116.203125 L 24.359375 -116.90625 L 22.953125 -116.90625 L 22.953125 -116.203125 Z M 28.109375 -115.03125 C 28.734375 -115.5 29.046875 -116.046875 29.046875 -116.671875 L 27.640625 -116.671875 L 27.640625 -115.734375 C 27.953125 -115.421875 28.109375 -115.1875 28.109375 -115.03125 Z M 39.125 -115.265625 C 38.34375 -116.046875 37.796875 -116.515625 37.484375 -116.671875 C 37.484375 -116.046875 37.640625 -115.421875 37.953125 -114.796875 L 38.65625 -115.03125 Z M 33.734375 -113.625 C 34.203125 -113.625 34.828125 -113.859375 35.609375 -114.328125 L 35.84375 -114.796875 L 31.625 -114.796875 L 31.625 -115.5 L 29.75 -115.5 L 29.75 -114.5625 L 31.625 -114.5625 L 31.625 -114.796875 L 32.09375 -114.328125 L 33.03125 -113.859375 C 33.03125 -113.703125 33.265625 -113.625 33.734375 -113.625 Z M 37.25 -113.390625 L 37.71875 -114.09375 L 35.84375 -114.5625 L 35.84375 -113.859375 Z M 38.890625 -113.15625 C 39.671875 -113.15625 40.296875 -113.390625 40.765625 -113.859375 C 40.140625 -114.328125 39.59375 -114.5625 39.125 -114.5625 C 38.8125 -114.25 38.734375 -114.015625 38.890625 -113.859375 Z M 31.15625 -112.921875 C 31.625 -112.140625 32.328125 -111.984375 33.265625 -112.453125 C 32.796875 -112.765625 32.09375 -112.921875 31.15625 -112.921875 Z M 27.640625 -100.5 L 27.640625 -99.5625 L 29.515625 -99.5625 L 29.515625 -100.5 Z M 37.71875 -97.46875 L 40.0625 -97.46875 L 40.0625 -98.390625 L 37.71875 -98.390625 Z M 41 -90.90625 C 41 -91.375 40.453125 -91.84375 39.359375 -92.3125 C 39.671875 -91.0625 40.0625 -90.28125 40.53125 -89.96875 Z M 57.640625 -91.84375 C 57.640625 -91.0625 57.519531 -90.550781 57.28125 -90.3125 C 57.050781 -90.082031 56.390625 -89.96875 55.296875 -89.96875 L 55.765625 -89.265625 L 58.796875 -91.375 Z M 37.953125 -89.96875 L 37.953125 -91.375 L 36.3125 -91.375 L 36.3125 -89.96875 Z M 54.125 -88.09375 L 54.125 -89.5 L 52.953125 -89.5 L 52.953125 -88.09375 Z M 32.09375 -88.796875 C 32.71875 -88.015625 33.222656 -87.660156 33.609375 -87.734375 C 34.003906 -87.816406 34.28125 -88.171875 34.4375 -88.796875 Z M 57.171875 -87.625 C 57.171875 -87.625 57.171875 -87.78125 57.171875 -88.09375 L 56.703125 -88.5625 L 56.46875 -87.859375 L 56.9375 -86.921875 L 57.171875 -86.921875 Z M 41.9375 -88.09375 C 43.34375 -87.625 44.4375 -87.625 45.21875 -88.09375 Z M 36.78125 -86.21875 L 36.78125 -85.28125 L 39.125 -85.28125 L 39.125 -86.21875 Z M 29.515625 -83.875 C 29.515625 -84.1875 29.359375 -84.65625 29.046875 -85.28125 L 29.046875 -85.75 C 27.953125 -85.75 27.171875 -85.515625 26.703125 -85.046875 L 26.703125 -83.875 Z M 58.109375 -83.875 L 59.03125 -83.875 L 59.03125 -84.8125 L 58.109375 -84.8125 Z M 56.703125 -81.765625 L 56.703125 -82.46875 L 55.0625 -82.46875 L 55.0625 -81.765625 Z M 77.3125 -81.765625 L 77.78125 -82.46875 L 77.3125 -82.46875 L 77.078125 -82 Z M 28.109375 -79.890625 C 28.578125 -80.203125 28.8125 -80.4375 28.8125 -80.59375 C 28.8125 -81.21875 28.109375 -81.609375 26.703125 -81.765625 L 26.703125 -80.359375 Z M 31.15625 -79.65625 L 31.15625 -80.59375 L 29.515625 -80.59375 L 29.515625 -79.65625 Z M 58.796875 -77.78125 C 58.492188 -78.71875 58.34375 -79.65625 58.34375 -80.59375 C 58.1875 -80.4375 58.066406 -80.316406 57.984375 -80.234375 C 57.910156 -80.160156 57.875 -80.046875 57.875 -79.890625 L 57.171875 -79.1875 L 56.46875 -78.953125 L 56.234375 -78.484375 C 56.546875 -78.171875 56.703125 -77.9375 56.703125 -77.78125 L 57.171875 -77.546875 Z M 49.671875 -76.609375 C 49.671875 -76.609375 49.628906 -76.644531 49.546875 -76.71875 C 49.472656 -76.800781 49.4375 -76.84375 49.4375 -76.84375 C 49.125 -76.84375 48.8125 -77 48.5 -77.3125 C 48.1875 -77.3125 48.03125 -77 48.03125 -76.375 L 48.03125 -75.90625 L 49.671875 -75.90625 Z M 28.34375 -76.375 C 27.5625 -75.90625 27.171875 -75.359375 27.171875 -74.734375 L 29.515625 -74.734375 Z M 89.265625 -76.375 L 89.265625 -75.671875 L 89.734375 -75.671875 L 89.734375 -76.375 Z M 34.203125 -74.265625 L 34.203125 -72.390625 L 35.609375 -72.390625 L 35.609375 -74.265625 Z M 23.421875 -74.03125 L 23.421875 -72.390625 L 25.296875 -72.390625 L 25.296875 -74.03125 Z M 59.265625 -70.28125 C 59.265625 -69.34375 59.96875 -68.875 61.375 -68.875 L 61.375 -70.28125 Z M 67 -67.234375 C 65.4375 -68.015625 64.34375 -68.40625 63.71875 -68.40625 C 63.71875 -67.625 64.34375 -67.078125 65.59375 -66.765625 C 65.75 -66.921875 65.984375 -67 66.296875 -67 Z M 58.578125 -65.59375 L 59.5 -67 L 58.109375 -67.234375 L 57.40625 -66.0625 Z M 59.265625 -66.53125 L 59.5 -65.828125 L 62.3125 -66.53125 L 61.84375 -67.234375 Z M 83.875 -66.0625 L 84.578125 -67 L 83.640625 -67.234375 L 82.9375 -66.53125 Z M 67.46875 -65.359375 L 67.234375 -66.296875 L 65.359375 -65.828125 L 65.59375 -65.125 Z M 20.140625 -63.953125 C 21.078125 -63.953125 21.859375 -64.109375 22.484375 -64.421875 L 22.015625 -65.828125 C 20.765625 -65.203125 20.140625 -64.578125 20.140625 -63.953125 Z M 56.703125 -64.65625 C 56.078125 -65.28125 55.53125 -65.671875 55.0625 -65.828125 C 54.90625 -65.359375 54.359375 -65.046875 53.421875 -64.890625 C 53.578125 -64.734375 53.8125 -64.65625 54.125 -64.65625 L 55.53125 -63.953125 L 56.234375 -64.1875 Z M 25.296875 -64.1875 L 25.296875 -63.25 L 27.171875 -63.953125 L 26.703125 -64.890625 Z M 28.109375 -60.90625 C 26.703125 -61.6875 26 -62.078125 26 -62.078125 L 25.296875 -62.546875 L 22.953125 -63.015625 L 23.421875 -60.90625 Z M 59.734375 -58.578125 C 59.578125 -59.503906 59.113281 -59.96875 58.34375 -59.96875 C 58.1875 -59.8125 58.1875 -59.578125 58.34375 -59.265625 C 58.34375 -59.265625 58.378906 -59.222656 58.453125 -59.140625 C 58.535156 -59.066406 58.578125 -59.03125 58.578125 -59.03125 Z M 82.9375 -58.796875 C 83.25 -58.023438 83.5625 -57.5625 83.875 -57.40625 C 84.1875 -57.5625 84.265625 -57.953125 84.109375 -58.578125 L 83.171875 -58.578125 Z M 59.96875 -57.171875 L 60.203125 -57.171875 C 60.359375 -57.171875 60.59375 -57.328125 60.90625 -57.640625 L 61.140625 -57.640625 L 61.375 -57.875 L 59.5 -58.34375 L 59.5 -56.9375 Z M 69.8125 -56.46875 L 69.34375 -58.109375 L 68.640625 -57.875 L 68.640625 -56.46875 Z M 29.515625 -56.703125 L 29.515625 -57.875 L 27.171875 -57.875 L 27.171875 -56.703125 Z M 61.609375 -54.359375 L 62.78125 -53.890625 L 63.25 -54.828125 L 62.078125 -55.0625 Z M 28.578125 -54.59375 L 28.578125 -52.953125 L 29.984375 -52.953125 L 29.984375 -54.59375 Z M 58.796875 -52.953125 C 58.492188 -52.953125 58.265625 -52.832031 58.109375 -52.59375 C 57.953125 -52.363281 58.03125 -52.171875 58.34375 -52.015625 L 59.734375 -52.25 Z M 68.640625 -50.84375 C 68.484375 -50.6875 68.25 -50.609375 67.9375 -50.609375 L 67.46875 -50.609375 C 67.46875 -50.453125 67.78125 -49.90625 68.40625 -48.96875 L 69.34375 -47.796875 C 69.96875 -48.109375 70.4375 -48.421875 70.75 -48.734375 C 70.90625 -48.890625 71.175781 -49.082031 71.5625 -49.3125 C 71.957031 -49.550781 72.3125 -49.828125 72.625 -50.140625 L 71.21875 -49.90625 L 70.75 -49.90625 L 69.8125 -49.4375 C 69.5 -49.75 69.34375 -49.984375 69.34375 -50.140625 C 69.34375 -50.453125 69.1875 -50.6875 68.875 -50.84375 Z M 62.78125 -49.90625 L 62.3125 -50.609375 L 60.671875 -50.375 L 61.140625 -49.4375 Z M 27.171875 -49.203125 C 26.234375 -49.203125 25.765625 -49.125 25.765625 -48.96875 C 25.453125 -48.8125 25.296875 -48.578125 25.296875 -48.265625 L 26.703125 -47.328125 L 27.171875 -48.5 Z M 72.625 -47.5625 L 71.921875 -47.328125 L 72.15625 -47.796875 L 70.28125 -47.796875 C 70.125 -47.640625 69.8125 -47.5625 69.34375 -47.5625 C 69.5 -46.9375 69.8125 -46.625 70.28125 -46.625 L 70.75 -46.15625 C 71.21875 -46.625 71.453125 -46.859375 71.453125 -46.859375 L 73.5625 -46.859375 L 75.4375 -47.328125 L 74.96875 -48.03125 L 73.09375 -47.5625 Z M 76.84375 -45.453125 L 77.78125 -45.921875 L 77.078125 -47.328125 L 75.90625 -46.859375 Z M 59.03125 -46.15625 C 59.5 -46 60.203125 -46 61.140625 -46.15625 C 60.671875 -46.78125 59.96875 -47.09375 59.03125 -47.09375 Z M 37.015625 -45.453125 L 37.015625 -44.046875 L 38.65625 -44.046875 L 38.65625 -45.453125 Z M 70.75 -43.8125 C 71.6875 -43.1875 72.78125 -43.03125 74.03125 -43.34375 L 74.03125 -44.046875 C 74.03125 -44.671875 73.5625 -45.0625 72.625 -45.21875 L 70.75 -44.75 Z M 64.421875 -43.578125 L 64.421875 -44.75 L 63.484375 -44.75 L 63.484375 -43.578125 Z M 69.34375 -43.109375 C 69.1875 -43.421875 68.910156 -43.613281 68.515625 -43.6875 C 68.128906 -43.769531 67.78125 -43.890625 67.46875 -44.046875 L 66.53125 -44.28125 L 67.46875 -42.640625 Z M 82.9375 -39.828125 C 83.875 -39.515625 84.421875 -39.359375 84.578125 -39.359375 C 84.890625 -39.515625 85.003906 -39.75 84.921875 -40.0625 C 84.847656 -40.375 84.65625 -40.609375 84.34375 -40.765625 Z M 74.03125 -36.546875 L 74.96875 -36.78125 L 73.5625 -40.0625 L 72.625 -39.828125 Z M 63.484375 -39.828125 L 63.484375 -38.65625 L 65.125 -38.65625 L 65.125 -39.828125 Z M 64.890625 -36.546875 C 64.578125 -36.859375 64.65625 -37.40625 65.125 -38.1875 L 62.78125 -37.484375 C 62.78125 -37.171875 63.09375 -37.015625 63.71875 -37.015625 C 63.71875 -36.859375 63.875 -36.78125 64.1875 -36.78125 Z M 80.359375 -32.796875 C 80.671875 -32.484375 80.984375 -32.328125 81.296875 -32.328125 L 83.171875 -32.796875 C 81.296875 -33.734375 80.28125 -34.515625 80.125 -35.140625 L 80.125 -36.3125 C 80.125 -36.3125 80.160156 -36.347656 80.234375 -36.421875 C 80.316406 -36.503906 80.359375 -36.546875 80.359375 -36.546875 L 80.125 -36.78125 L 78.71875 -36.3125 C 78.71875 -36.15625 78.328125 -36 77.546875 -35.84375 L 77.078125 -35.375 L 76.375 -34.90625 L 78.015625 -34.671875 L 79.421875 -34.4375 C 79.734375 -33.8125 80.046875 -33.265625 80.359375 -32.796875 Z M 72.15625 -34.671875 C 72.15625 -34.984375 71.6875 -35.375 70.75 -35.84375 L 71.6875 -33.734375 Z M 75.4375 -30.21875 C 76.6875 -30.53125 77.390625 -30.765625 77.546875 -30.921875 L 78.25 -31.390625 L 78.71875 -31.859375 L 79.1875 -32.09375 L 78.484375 -33.734375 L 77.546875 -33.734375 L 76.375 -34.203125 C 76.375 -33.890625 76.53125 -33.421875 76.84375 -32.796875 C 76.84375 -32.796875 76.878906 -32.753906 76.953125 -32.671875 C 77.035156 -32.597656 77.078125 -32.5625 77.078125 -32.5625 L 77.078125 -32.09375 C 77.390625 -31.9375 77.390625 -31.703125 77.078125 -31.390625 C 77.078125 -31.234375 76.878906 -31.078125 76.484375 -30.921875 C 76.097656 -30.765625 75.75 -30.53125 75.4375 -30.21875 Z M 25.765625 -33.734375 L 25.765625 -32.09375 L 27.171875 -32.09375 L 27.171875 -33.734375 Z M 69.34375 -29.046875 L 70.28125 -28.578125 L 75.4375 -31.390625 C 74.65625 -31.078125 73.796875 -30.921875 72.859375 -30.921875 C 72.546875 -30.609375 72 -30.453125 71.21875 -30.453125 C 69.96875 -30.140625 69.109375 -29.828125 68.640625 -29.515625 L 69.109375 -29.28125 L 69.34375 -29.28125 Z M 87.390625 -31.390625 C 87.390625 -30.609375 87.269531 -30.140625 87.03125 -29.984375 C 86.800781 -29.828125 86.140625 -29.75 85.046875 -29.75 L 85.515625 -28.8125 L 88.5625 -31.15625 Z M 27.640625 -29.515625 C 28.890625 -29.984375 29.671875 -30.375 29.984375 -30.6875 C 29.359375 -31 28.578125 -31.15625 27.640625 -31.15625 Z M 83.40625 -25.53125 L 84.578125 -25.296875 L 84.8125 -26.703125 L 83.640625 -26.703125 Z M 30.453125 -26.234375 L 30.453125 -24.828125 L 32.796875 -24.828125 L 32.796875 -26.234375 Z M 78.953125 -25.765625 L 77.546875 -24.359375 L 78.015625 -24.125 C 78.171875 -24.125 78.285156 -24.082031 78.359375 -24 C 78.441406 -23.925781 78.484375 -23.8125 78.484375 -23.65625 L 80.59375 -24.125 Z M 81.765625 -24.359375 C 81.296875 -23.734375 81.375 -23.421875 82 -23.421875 C 82.46875 -23.421875 82.78125 -23.5 82.9375 -23.65625 L 82.703125 -23.890625 C 82.390625 -23.890625 82.078125 -24.046875 81.765625 -24.359375 Z M 84.34375 -22.484375 C 84.34375 -22.328125 84.109375 -22.25 83.640625 -22.25 L 83.40625 -22.25 L 82.46875 -20.84375 L 82.46875 -20.609375 L 82.703125 -20.609375 L 83.640625 -22.015625 C 84.265625 -22.171875 84.890625 -22.171875 85.515625 -22.015625 L 85.75 -22.25 Z M 88.5625 -22.25 C 88.09375 -21.9375 87.703125 -21.546875 87.390625 -21.078125 L 87.15625 -21.078125 L 87.390625 -20.84375 C 87.703125 -21.46875 88.09375 -21.859375 88.5625 -22.015625 L 88.796875 -22.015625 Z M 73.09375 -18.046875 C 73.40625 -18.203125 73.71875 -18.515625 74.03125 -18.984375 L 71.6875 -18.515625 L 71.21875 -18.515625 L 70.28125 -18.28125 C 70.90625 -17.8125 70.90625 -17.265625 70.28125 -16.640625 C 71.375 -16.640625 72 -16.875 72.15625 -17.34375 C 72.625 -17.65625 72.9375 -17.890625 73.09375 -18.046875 C 73.25 -18.203125 73.25 -18.203125 73.09375 -18.046875 Z M 73.09375 -18.046875 "/></g></g></g><g fill="#ffffff" fill-opacity="1"><g transform="translate(188.105758, 271.154957)"><g><path d="M 109.640625 -143.140625 C 113.546875 -136.273438 115.5 -128.703125 115.5 -120.421875 L 115.265625 -116.4375 C 115.265625 -111.125 114.25 -104.875 112.21875 -97.6875 C 111.75 -95.351562 110.265625 -94.1875 107.765625 -94.1875 L 75.203125 -94.1875 C 73.796875 -94.1875 72.660156 -94.65625 71.796875 -95.59375 C 70.941406 -96.53125 70.515625 -97.617188 70.515625 -98.859375 C 70.515625 -99.640625 70.59375 -100.1875 70.75 -100.5 L 74.265625 -113.859375 C 75.203125 -118.859375 75.671875 -122.296875 75.671875 -124.171875 C 75.671875 -125.734375 75.4375 -127.0625 74.96875 -128.15625 C 73.875 -130.03125 72.390625 -130.96875 70.515625 -130.96875 C 65.203125 -130.96875 60.398438 -127.488281 56.109375 -120.53125 C 51.816406 -113.582031 48.457031 -105.109375 46.03125 -95.109375 C 43.613281 -85.117188 42.40625 -75.828125 42.40625 -67.234375 C 42.40625 -59.429688 43.300781 -52.363281 45.09375 -46.03125 C 46.894531 -39.707031 50.375 -36.078125 55.53125 -35.140625 C 61.144531 -34.359375 66.609375 -36.625 71.921875 -41.9375 C 72.234375 -42.25 73.328125 -43.5 75.203125 -45.6875 L 78.015625 -49.671875 C 80.828125 -53.734375 83.953125 -58.726562 87.390625 -64.65625 C 88.328125 -66.0625 89.65625 -66.765625 91.375 -66.765625 C 92.78125 -66.765625 93.953125 -66.296875 94.890625 -65.359375 L 108.9375 -50.609375 C 109.71875 -49.828125 110.109375 -48.8125 110.109375 -47.5625 C 110.109375 -46.46875 109.953125 -45.6875 109.640625 -45.21875 C 102.921875 -32.71875 96.753906 -23.738281 91.140625 -18.28125 C 78.953125 -6.09375 65.441406 0 50.609375 0 C 45.140625 0 39.75 -0.78125 34.4375 -2.34375 C 23.351562 -5.3125 14.453125 -12.769531 7.734375 -24.71875 C 1.015625 -36.664062 -2.34375 -50.835938 -2.34375 -67.234375 C -2.34375 -98.160156 7.648438 -124.476562 27.640625 -146.1875 C 38.109375 -157.90625 51.851562 -163.765625 68.875 -163.765625 C 70.59375 -163.765625 73.171875 -163.609375 76.609375 -163.296875 C 83.796875 -162.515625 90.195312 -160.484375 95.8125 -157.203125 C 101.4375 -153.921875 106.046875 -149.234375 109.640625 -143.140625 Z M 78.71875 -160.71875 C 78.09375 -160.25 77.78125 -159.859375 77.78125 -159.546875 C 78.71875 -158.921875 79.34375 -158.609375 79.65625 -158.609375 C 79.8125 -158.609375 80.359375 -158.765625 81.296875 -159.078125 C 81.921875 -159.234375 82.625 -159.3125 83.40625 -159.3125 L 82.46875 -160.015625 C 82 -160.171875 81.375 -160.25 80.59375 -160.25 Z M 80.59375 -155.09375 C 80.28125 -155.71875 80.4375 -156.109375 81.0625 -156.265625 C 81.53125 -156.421875 82.3125 -156.5 83.40625 -156.5 C 83.5625 -156.65625 83.875 -157.046875 84.34375 -157.671875 L 85.75 -158.140625 C 86.375 -158.453125 86.84375 -158.765625 87.15625 -159.078125 C 86.84375 -159.390625 86.375 -159.546875 85.75 -159.546875 C 85.125 -159.546875 84.734375 -159.625 84.578125 -159.78125 C 84.265625 -159.46875 84.1875 -159.234375 84.34375 -159.078125 C 84.5 -158.609375 84.5 -158.296875 84.34375 -158.140625 C 83.5625 -157.828125 83.09375 -157.515625 82.9375 -157.203125 C 82.625 -156.890625 82.234375 -156.734375 81.765625 -156.734375 C 81.140625 -156.734375 80.75 -156.65625 80.59375 -156.5 C 80.28125 -156.5 80.046875 -156.535156 79.890625 -156.609375 C 79.734375 -156.691406 79.578125 -156.734375 79.421875 -156.734375 C 79.265625 -157.046875 79.265625 -157.28125 79.421875 -157.4375 C 79.421875 -157.59375 79.265625 -157.828125 78.953125 -158.140625 C 78.015625 -157.984375 77.234375 -157.59375 76.609375 -156.96875 C 77.390625 -156.65625 77.625 -156.265625 77.3125 -155.796875 L 80.359375 -154.390625 L 80.359375 -154.859375 C 80.359375 -155.015625 80.4375 -155.09375 80.59375 -155.09375 Z M 53.890625 -157.203125 C 53.890625 -157.203125 53.847656 -157.238281 53.765625 -157.3125 C 53.691406 -157.394531 53.65625 -157.515625 53.65625 -157.671875 L 53.65625 -158.140625 L 50.140625 -158.140625 C 50.921875 -158.140625 51.46875 -157.984375 51.78125 -157.671875 C 52.09375 -157.671875 52.25 -157.515625 52.25 -157.203125 L 52.25 -156.96875 L 52.953125 -156.734375 C 53.421875 -156.734375 53.65625 -156.8125 53.65625 -156.96875 Z M 59.265625 -157.203125 L 60.203125 -158.140625 L 58.109375 -158.140625 L 58.109375 -157.203125 Z M 89.03125 -156.734375 L 89.03125 -156.265625 L 90.203125 -156.265625 L 90.203125 -156.734375 Z M 61.140625 -154.390625 L 62.078125 -155.09375 C 61.453125 -155.25 61.140625 -155.640625 61.140625 -156.265625 L 59.734375 -156.265625 C 59.421875 -156.265625 59.265625 -156.109375 59.265625 -155.796875 C 59.265625 -155.484375 59.578125 -155.171875 60.203125 -154.859375 Z M 75.4375 -154.15625 C 76.21875 -154 76.609375 -153.765625 76.609375 -153.453125 L 76.84375 -154.15625 C 77.15625 -154.46875 77.15625 -154.78125 76.84375 -155.09375 C 76.53125 -155.09375 76.0625 -154.78125 75.4375 -154.15625 Z M 60.671875 -152.984375 C 60.359375 -153.296875 60.203125 -153.53125 60.203125 -153.6875 L 59.265625 -153.6875 C 58.804688 -153.21875 58.5 -152.984375 58.34375 -152.984375 C 58.5 -152.984375 58.648438 -152.941406 58.796875 -152.859375 C 58.953125 -152.785156 59.1875 -152.75 59.5 -152.75 C 59.8125 -152.59375 60.203125 -152.515625 60.671875 -152.515625 Z M 58.109375 -147.59375 L 57.875 -147.125 L 58.34375 -146.890625 L 58.796875 -147.125 Z M 78.015625 -141.734375 C 78.328125 -142.046875 78.484375 -142.359375 78.484375 -142.671875 C 78.171875 -142.671875 78.015625 -142.59375 78.015625 -142.4375 Z M 75.203125 -139.625 L 75.203125 -136.59375 L 77.078125 -136.8125 L 77.078125 -139.625 Z M 63.25 -136.359375 L 62.546875 -134.953125 L 61.84375 -133.78125 L 63.25 -133.78125 C 63.40625 -133.9375 63.5625 -134.128906 63.71875 -134.359375 C 63.875 -134.597656 63.953125 -134.796875 63.953125 -134.953125 L 64.65625 -136.359375 Z M 87.859375 -130.5 C 87.859375 -131.125 87.234375 -131.4375 85.984375 -131.4375 L 85.75 -128.859375 L 86.6875 -128.15625 L 87.390625 -129.328125 C 87.703125 -129.640625 87.859375 -130.03125 87.859375 -130.5 Z M 94.421875 -127.921875 L 94.421875 -128.390625 L 94.65625 -128.625 C 94.65625 -128.78125 94.734375 -128.859375 94.890625 -128.859375 L 94.890625 -129.328125 L 92.3125 -129.328125 L 91.84375 -128.390625 Z M 91.375 -124.40625 C 91.375 -123.15625 92 -122.53125 93.25 -122.53125 L 94.421875 -123 C 94.890625 -123.15625 95.203125 -123.269531 95.359375 -123.34375 C 95.515625 -123.425781 95.59375 -123.46875 95.59375 -123.46875 L 96.53125 -123.703125 L 96.53125 -124.875 C 96.0625 -125.34375 95.828125 -125.578125 95.828125 -125.578125 L 94.890625 -126.046875 C 94.265625 -126.359375 93.796875 -126.515625 93.484375 -126.515625 C 93.015625 -126.515625 92.582031 -126.238281 92.1875 -125.6875 C 91.800781 -125.144531 91.53125 -124.71875 91.375 -124.40625 Z M 42.875 -125.578125 L 42.40625 -125.8125 C 42.09375 -125.8125 41.9375 -125.65625 41.9375 -125.34375 L 43.109375 -125.34375 Z M 88.796875 -122.765625 C 88.953125 -123.234375 88.25 -123.9375 86.6875 -124.875 L 86.921875 -124.640625 C 86.609375 -124.015625 86.253906 -123.660156 85.859375 -123.578125 C 85.472656 -123.503906 85.203125 -123.46875 85.046875 -123.46875 C 84.890625 -123.3125 84.578125 -123.234375 84.109375 -123.234375 L 83.171875 -123 L 83.171875 -122.0625 C 83.640625 -121.75 84.109375 -121.59375 84.578125 -121.59375 C 84.890625 -121.4375 85.28125 -121.359375 85.75 -121.359375 L 87.390625 -121.828125 Z M 96.53125 -121.125 L 95.125 -120.65625 C 94.65625 -120.65625 94.1875 -120.890625 93.71875 -121.359375 L 93.484375 -121.59375 L 92.78125 -121.59375 C 92.15625 -120.8125 91.84375 -120.03125 91.84375 -119.25 L 93.25 -118.546875 C 94.1875 -118.234375 94.734375 -118 94.890625 -117.84375 L 95.828125 -118.546875 C 95.828125 -119.171875 95.59375 -119.5625 95.125 -119.71875 L 95.59375 -119.953125 L 95.59375 -120.1875 L 96.296875 -120.1875 C 96.296875 -120.34375 96.375 -120.457031 96.53125 -120.53125 C 96.6875 -120.613281 96.765625 -120.65625 96.765625 -120.65625 L 97.234375 -121.125 Z M 34.203125 -119.953125 L 34.203125 -119.25 L 34.90625 -119.25 L 34.90625 -119.953125 Z M 29.75 -114.09375 C 29.4375 -114.71875 29.28125 -115.1875 29.28125 -115.5 C 29.28125 -116.75 28.65625 -117.6875 27.40625 -118.3125 C 26.78125 -118.625 26.546875 -119.09375 26.703125 -119.71875 C 25.765625 -119.09375 25.296875 -118.546875 25.296875 -118.078125 C 25.296875 -117.921875 25.6875 -117.6875 26.46875 -117.375 C 26.78125 -117.21875 27.328125 -117.140625 28.109375 -117.140625 C 27.953125 -116.671875 27.5625 -116.125 26.9375 -115.5 L 26.234375 -114.09375 C 26.234375 -113.46875 26.390625 -113.15625 26.703125 -113.15625 L 26.9375 -113.15625 C 26.9375 -113.3125 27.09375 -113.390625 27.40625 -113.390625 C 27.875 -113.390625 28.1875 -113.3125 28.34375 -113.15625 C 28.34375 -113.15625 28.5 -113 28.8125 -112.6875 C 28.8125 -113 28.96875 -113.234375 29.28125 -113.390625 Z M 32.796875 -117.375 C 32.796875 -117.53125 32.640625 -117.765625 32.328125 -118.078125 L 31.625 -118.546875 L 31.15625 -118.3125 C 31.15625 -118 31 -117.84375 30.6875 -117.84375 Z M 33.96875 -117.84375 C 33.96875 -117.84375 34.003906 -117.800781 34.078125 -117.71875 C 34.160156 -117.644531 34.203125 -117.609375 34.203125 -117.609375 Z M 20.375 -114.09375 C 20.84375 -113.625 21.3125 -113.390625 21.78125 -113.390625 L 22.25 -114.09375 C 21.625 -114.71875 21 -115.03125 20.375 -115.03125 Z M 16.640625 -112.21875 C 16.953125 -111.90625 17.34375 -111.75 17.8125 -111.75 L 18.984375 -111.75 Z M 20.609375 -111.28125 C 22.015625 -111.28125 23.03125 -111.125 23.65625 -110.8125 C 24.125 -111.125 24.359375 -111.59375 24.359375 -112.21875 L 20.609375 -112.21875 Z M 27.640625 -110.8125 L 27.640625 -110.34375 L 28.8125 -110.34375 L 28.8125 -110.8125 Z M 48.03125 -110.109375 L 48.03125 -109.40625 L 48.5 -109.40625 L 48.5 -110.109375 Z M 97.921875 -108.9375 L 97.6875 -108.9375 L 97.921875 -108.46875 L 98.390625 -108.703125 Z M 19.453125 -107.296875 C 19.140625 -107.453125 18.984375 -107.609375 18.984375 -107.765625 L 17.34375 -107.765625 L 17.34375 -107.296875 C 17.34375 -106.515625 17.8125 -105.890625 18.75 -105.421875 C 19.363281 -105.890625 19.671875 -106.28125 19.671875 -106.59375 C 19.671875 -107.0625 19.597656 -107.296875 19.453125 -107.296875 Z M 26.703125 -103.78125 C 24.515625 -105.5 23.1875 -106.359375 22.71875 -106.359375 L 21.546875 -106.359375 C 22.015625 -106.203125 22.25 -105.8125 22.25 -105.1875 C 22.25 -104.71875 22.171875 -104.484375 22.015625 -104.484375 L 21.546875 -104.484375 L 21.3125 -104.71875 L 20.84375 -104.71875 L 20.375 -104.484375 C 20.21875 -104.484375 20.097656 -104.40625 20.015625 -104.25 C 19.941406 -104.09375 19.90625 -104.015625 19.90625 -104.015625 L 20.375 -103.78125 C 20.375 -103.625 20.410156 -103.503906 20.484375 -103.421875 C 20.566406 -103.347656 20.609375 -103.3125 20.609375 -103.3125 C 21.234375 -103.3125 21.859375 -103.46875 22.484375 -103.78125 C 23.265625 -104.25 23.8125 -104.484375 24.125 -104.484375 L 25.0625 -104.015625 C 25.0625 -103.859375 25.296875 -103.78125 25.765625 -103.78125 Z M 16.875 -103.078125 C 16.875 -103.546875 16.484375 -103.9375 15.703125 -104.25 C 15.703125 -103.9375 15.859375 -103.660156 16.171875 -103.421875 C 16.484375 -103.191406 16.71875 -103.078125 16.875 -103.078125 Z M 12.421875 -104.015625 L 12.421875 -103.546875 L 13.59375 -103.546875 L 13.59375 -104.015625 Z M 28.34375 -100.96875 C 28.34375 -101.59375 28.109375 -102.375 27.640625 -103.3125 C 27.171875 -102.375 26.9375 -101.75 26.9375 -101.4375 C 26.9375 -101.125 27.09375 -100.65625 27.40625 -100.03125 L 28.109375 -100.03125 Z M 24.59375 -102.140625 L 24.59375 -101.671875 L 26.46875 -101.4375 L 26.46875 -101.90625 Z M 18.75 -97.46875 C 19.21875 -97.46875 19.601562 -97.539062 19.90625 -97.6875 L 20.609375 -97.6875 L 20.609375 -99.09375 C 19.984375 -99.09375 19.671875 -99.25 19.671875 -99.5625 L 19.21875 -98.390625 Z M 12.1875 -96.765625 C 13.125 -97.234375 13.59375 -97.695312 13.59375 -98.15625 L 13.125 -98.15625 L 12.890625 -98.390625 C 11.796875 -98.078125 11.25 -97.691406 11.25 -97.234375 Z M 20.609375 -96.765625 L 20.375 -95.828125 L 21.546875 -95.828125 L 21.78125 -96.765625 Z M 16.875 -93.71875 L 17.109375 -93.953125 C 17.265625 -93.953125 17.34375 -94.109375 17.34375 -94.421875 L 17.109375 -94.890625 L 15.703125 -94.890625 L 15.703125 -93.71875 Z M 18.046875 -89.5 C 17.734375 -89.65625 17.265625 -89.734375 16.640625 -89.734375 L 15.234375 -89.734375 L 15.46875 -89.265625 L 15.703125 -88.5625 C 16.640625 -88.5625 17.734375 -88.328125 18.984375 -87.859375 L 18.984375 -89.03125 Z M 18.75 -87.390625 C 18.28125 -87.390625 18.046875 -87.078125 18.046875 -86.453125 L 18.28125 -85.984375 C 18.4375 -85.984375 18.59375 -85.828125 18.75 -85.515625 Z M 27.640625 -81.296875 C 27.796875 -81.921875 27.875 -82.9375 27.875 -84.34375 C 27.875 -85.125 27.796875 -85.671875 27.640625 -85.984375 C 27.171875 -85.515625 26.9375 -84.890625 26.9375 -84.109375 C 26.9375 -83.484375 27.09375 -83.015625 27.40625 -82.703125 Z M -0.46875 -73.328125 L -0.46875 -72.625 L -0.703125 -71.921875 C -0.703125 -71.453125 -0.625 -71.140625 -0.46875 -70.984375 L 0 -70.28125 C 0.78125 -70.75 1.171875 -71.140625 1.171875 -71.453125 L 1.171875 -73.328125 Z M 91.140625 -61.84375 C 90.984375 -61.375 91.21875 -60.828125 91.84375 -60.203125 C 91.84375 -60.359375 92 -60.59375 92.3125 -60.90625 C 92.46875 -61.0625 92.546875 -61.296875 92.546875 -61.609375 L 91.375 -62.3125 C 91.21875 -62.15625 91.140625 -62.15625 91.140625 -62.3125 Z M 7.03125 -43.578125 L 6.328125 -44.046875 L 4.6875 -44.046875 L 3.515625 -43.578125 L 3.515625 -42.640625 L 3.984375 -42.40625 L 4.6875 -42.171875 C 4.84375 -42.328125 5.078125 -42.40625 5.390625 -42.40625 Z M 23.1875 -41 L 23.1875 -39.125 L 23.65625 -39.125 L 23.65625 -41 Z M 71.21875 -7.265625 L 72.625 -10.078125 L 71.921875 -10.546875 L 70.515625 -7.5 Z M 45.921875 -6.5625 C 44.984375 -6.09375 44.515625 -5.703125 44.515625 -5.390625 L 46.390625 -5.390625 L 46.15625 -6.09375 Z M 45.921875 -6.5625 "/></g></g></g></svg>